<svg xmlns="http://www.w3.org/2000/svg" width="810" viewBox="0 0 810 810" height="810" version="1.0"><defs><clipPath id="a"><path d="M 40 321 L 497 321 L 497 779.019531 L 40 779.019531 Z M 40 321"/></clipPath><clipPath id="b"><path d="M 219 31.269531 L 350 31.269531 L 350 162 L 219 162 Z M 219 31.269531"/></clipPath></defs><path d="M 442.628906 79.910156 L 459.484375 79.910156 L 459.484375 96.777344 L 442.628906 96.777344 Z M 442.628906 79.910156"/><path d="M 559.496094 136.574219 L 576.351562 136.574219 L 576.351562 153.441406 L 559.496094 153.441406 Z M 559.496094 136.574219"/><path d="M 575.09375 439.527344 L 591.945312 439.527344 L 591.945312 456.398438 L 575.09375 456.398438 Z M 575.09375 439.527344"/><path d="M 627.371094 312.304688 L 644.226562 312.304688 L 644.226562 329.171875 L 627.371094 329.171875 Z M 627.371094 312.304688"/><g clip-path="url(#a)"><path d="M 457.308594 538.914062 C 477.640625 572.886719 480.988281 594.285156 475.492188 599.789062 C 475.101562 600.175781 474.589844 600.535156 473.953125 600.851562 L 472.234375 601.5 C 465.367188 603.441406 449.570312 601.425781 420.910156 585.226562 C 389.066406 567.230469 352.011719 537.78125 316.5625 502.300781 C 281.117188 466.824219 251.691406 429.734375 233.710938 397.867188 C 219.433594 372.566406 216.183594 357.28125 216.945312 349.308594 L 219.273438 343.144531 C 223.660156 339.011719 241.148438 338.238281 279.566406 361.1875 L 289.386719 344.722656 C 248.910156 320.542969 219.941406 315.34375 205.613281 329.679688 C 201.554688 333.742188 199.042969 338.894531 198.054688 345.097656 L 41.351562 760.441406 C 39.449219 765.480469 40.675781 771.195312 44.480469 775.003906 C 47.097656 777.625 50.613281 779.023438 54.195312 779.023438 C 55.820312 779.023438 57.457031 778.734375 59.03125 778.140625 L 473.710938 621.445312 L 478.800781 619.519531 C 479.570312 619.269531 480.316406 618.980469 481.046875 618.671875 L 484.699219 617.289062 L 484.550781 616.898438 C 486.167969 615.898438 487.667969 614.71875 489.039062 613.347656 C 503.425781 598.949219 498.132812 569.804688 473.746094 529.058594 Z M 437.6875 614.554688 L 180.148438 711.875 C 142.769531 707.304688 112.261719 693.785156 91.511719 681.773438 L 114.933594 619.703125 C 142.222656 636.054688 187.078125 656.128906 242.765625 656.128906 C 290.175781 656.128906 345.433594 641.570312 404.371094 597.769531 C 416.109375 604.828125 427.335938 610.542969 437.6875 614.554688 Z M 121.816406 601.449219 L 144.5 541.328125 C 163.855469 554.753906 195.308594 570.566406 236.117188 570.566406 C 263.890625 570.566406 296 563.214844 331.535156 542.820312 C 350.027344 559.3125 368.917969 574.304688 387.042969 586.65625 C 267.90625 671.328125 166.292969 628.96875 121.816406 601.449219 Z M 316.675781 529.148438 C 237.003906 572.074219 178 542.425781 151.507812 522.761719 L 170.171875 473.289062 C 183.210938 482.011719 201.589844 490.15625 224.808594 490.15625 C 238.285156 490.15625 253.390625 487.40625 270.015625 480.4375 C 280.277344 492.285156 291.332031 504.171875 303.015625 515.863281 C 307.507812 520.359375 312.070312 524.789062 316.675781 529.148438 Z M 217.027344 407.296875 C 227.207031 425.34375 240.847656 444.921875 257.011719 464.898438 C 219.746094 478.277344 192.640625 466.234375 177.160156 454.757812 L 204.636719 381.941406 C 207.742188 389.707031 211.867188 398.15625 217.027344 407.296875 Z M 84.65625 699.941406 C 100.535156 708.878906 121.28125 718.355469 145.921875 724.808594 L 63.53125 755.941406 Z M 84.65625 699.941406"/></g><path d="M 613.691406 176.886719 L 635.0625 183.535156 L 641.710938 204.941406 C 642.835938 208.53125 645.835938 211.125 649.546875 211.707031 C 650.066406 211.789062 650.582031 211.828125 651.097656 211.828125 C 654.253906 211.828125 657.214844 210.316406 659.074219 207.679688 L 671.996094 189.390625 L 694.378906 189.679688 C 698.089844 189.71875 701.523438 187.675781 703.230469 184.328125 C 704.941406 180.980469 704.609375 177.027344 702.359375 173.996094 L 688.972656 156.046875 L 696.160156 134.835938 L 696.164062 134.824219 C 697.363281 131.261719 696.464844 127.402344 693.808594 124.742188 C 691.152344 122.085938 687.292969 121.183594 683.726562 122.390625 L 662.535156 129.582031 L 644.601562 116.191406 C 641.589844 113.9375 637.636719 113.597656 634.285156 115.304688 C 630.933594 117.011719 628.882812 120.410156 628.929688 124.175781 L 629.21875 146.574219 L 610.949219 159.503906 C 607.875 161.675781 606.332031 165.339844 606.925781 169.0625 C 607.519531 172.78125 610.113281 175.78125 613.691406 176.886719 Z M 644.332031 159.359375 C 646.9375 157.5 648.472656 154.472656 648.4375 151.25 L 648.332031 142.902344 L 654.996094 147.882812 C 657.570312 149.8125 660.929688 150.359375 664.027344 149.324219 L 671.925781 146.644531 L 669.238281 154.566406 C 668.210938 157.621094 668.746094 160.988281 670.671875 163.566406 L 675.660156 170.257812 L 667.300781 170.152344 C 664.109375 170.097656 661.078125 171.65625 659.191406 174.296875 L 654.375 181.113281 L 651.910156 173.167969 C 650.957031 170.070312 648.542969 167.648438 645.449219 166.6875 L 637.484375 164.207031 Z M 644.332031 159.359375"/><path d="M 768.59375 516.664062 C 766.878906 513.289062 763.453125 511.257812 759.679688 511.273438 L 729.902344 511.652344 L 712.703125 487.3125 C 710.515625 484.222656 706.84375 482.679688 703.109375 483.269531 C 699.375 483.863281 696.355469 486.472656 695.234375 490.089844 L 686.394531 518.550781 L 657.949219 527.398438 C 654.34375 528.523438 651.734375 531.542969 651.140625 535.28125 C 650.546875 539.015625 652.097656 542.699219 655.1875 544.886719 L 679.503906 562.097656 L 679.121094 591.894531 C 679.074219 595.683594 681.136719 599.105469 684.507812 600.824219 C 685.9375 601.550781 687.472656 601.910156 689 601.910156 C 691.082031 601.910156 693.140625 601.246094 694.886719 599.941406 L 718.75 582.117188 L 746.953125 591.6875 C 750.539062 592.902344 754.421875 591.992188 757.097656 589.320312 C 759.773438 586.644531 760.679688 582.753906 759.460938 579.167969 L 749.902344 550.941406 L 767.703125 527.0625 C 769.972656 524.023438 770.3125 520.039062 768.59375 516.664062 Z M 730.183594 552.460938 L 735.269531 567.464844 L 720.300781 562.386719 C 717.210938 561.324219 713.808594 561.863281 711.210938 563.816406 L 698.523438 573.289062 L 698.726562 557.484375 C 698.78125 554.210938 697.214844 551.132812 694.558594 549.261719 L 681.632812 540.113281 L 696.769531 535.40625 C 699.855469 534.441406 702.273438 532.019531 703.242188 528.914062 L 707.941406 513.78125 L 717.070312 526.703125 C 718.953125 529.378906 722.023438 530.9375 725.261719 530.890625 L 741.089844 530.6875 L 731.636719 543.367188 C 729.671875 545.980469 729.136719 549.390625 730.183594 552.460938 Z M 730.183594 552.460938"/><g clip-path="url(#b)"><path d="M 223.550781 98.523438 L 251.097656 118.015625 L 250.664062 151.789062 C 250.621094 155.582031 252.6875 159.011719 256.066406 160.730469 C 257.496094 161.460938 259.035156 161.820312 260.566406 161.820312 C 262.652344 161.820312 264.722656 161.15625 266.480469 159.84375 L 293.515625 139.648438 L 325.46875 150.492188 C 329.0625 151.714844 332.957031 150.804688 335.640625 148.121094 C 338.328125 145.4375 339.238281 141.535156 338.019531 137.933594 L 327.183594 105.957031 L 347.359375 78.898438 C 349.628906 75.859375 349.96875 71.867188 348.25 68.480469 C 346.53125 65.09375 343.0625 63.023438 339.300781 63.066406 L 305.566406 63.496094 L 286.09375 35.9375 C 283.90625 32.832031 280.214844 31.269531 276.46875 31.863281 C 272.71875 32.453125 269.6875 35.074219 268.554688 38.707031 L 258.542969 70.949219 L 226.320312 80.972656 C 222.695312 82.101562 220.074219 85.136719 219.488281 88.890625 C 218.902344 92.648438 220.457031 96.339844 223.550781 98.523438 Z M 268.898438 87.816406 C 271.988281 86.847656 274.414062 84.425781 275.398438 81.300781 L 281.285156 62.34375 L 292.734375 78.546875 C 294.589844 81.175781 297.609375 82.738281 300.871094 82.738281 C 300.894531 82.738281 300.921875 82.738281 300.945312 82.738281 L 320.78125 82.484375 L 308.925781 98.386719 C 306.964844 101.007812 306.429688 104.421875 307.476562 107.5 L 313.847656 126.300781 L 295.078125 119.933594 C 291.988281 118.875 288.574219 119.414062 285.964844 121.367188 L 270.066406 133.242188 L 270.320312 113.410156 C 270.371094 110.140625 268.804688 107.058594 266.140625 105.175781 L 249.941406 93.710938 Z M 268.898438 87.816406"/></g><path d="M 553.148438 385.003906 L 556.398438 403.902344 C 597.878906 396.753906 640.371094 400.019531 679.277344 413.347656 L 685.480469 395.203125 C 643.546875 380.835938 597.785156 377.308594 553.148438 385.003906 Z M 553.148438 385.003906"/><path d="M 377.160156 487.460938 L 390.710938 501.019531 L 412.945312 478.769531 C 444.710938 446.972656 483.992188 423.496094 526.542969 410.878906 L 521.101562 392.492188 C 475.5 406.015625 433.414062 431.160156 399.394531 465.207031 Z M 377.160156 487.460938"/><path d="M 432.847656 166.195312 C 430.601562 155.136719 427.617188 144.125 423.972656 133.46875 L 405.84375 139.679688 C 409.21875 149.554688 411.988281 159.757812 414.066406 170.011719 Z M 432.847656 166.195312"/><path d="M 436.09375 186.054688 L 417.082031 188.429688 C 425.3125 254.332031 406.335938 323.449219 365.015625 378.058594 L 380.289062 389.636719 C 424.597656 331.074219 444.9375 256.871094 436.09375 186.054688 Z M 436.09375 186.054688"/><path d="M 340.472656 406.238281 L 318.238281 428.492188 L 331.789062 442.050781 L 354.023438 419.796875 C 357.179688 416.636719 360.308594 413.359375 363.320312 410.054688 L 349.164062 397.132812 C 346.347656 400.222656 343.421875 403.285156 340.472656 406.238281 Z M 340.472656 406.238281"/><path d="M 589.566406 506.34375 C 604.035156 510.75 618.613281 516.597656 632.902344 523.722656 L 641.449219 506.558594 C 626.207031 498.957031 610.628906 492.714844 595.148438 487.996094 Z M 589.566406 506.34375"/><path d="M 408.632812 521.589844 L 393.4375 536.796875 L 406.988281 550.355469 L 422.183594 535.148438 C 455.101562 502.203125 506.445312 489.332031 563.050781 499.832031 L 566.542969 480.976562 C 503.636719 469.304688 446.082031 484.109375 408.632812 521.589844 Z M 408.632812 521.589844"/><path d="M 312.3125 177.144531 L 295.164062 185.699219 C 302.378906 200.191406 308.28125 214.980469 312.707031 229.660156 L 331.050781 224.121094 C 326.3125 208.40625 320.011719 192.601562 312.3125 177.144531 Z M 312.3125 177.144531"/><path d="M 268.550781 411.804688 L 282.101562 425.363281 L 297.292969 410.15625 C 334.742188 372.679688 349.53125 315.078125 337.875 252.125 L 319.03125 255.621094 C 329.523438 312.269531 316.660156 363.65625 283.746094 396.597656 Z M 268.550781 411.804688"/><path d="M 615.199219 189.851562 L 628.75 203.410156 L 496.320312 335.945312 L 482.773438 322.386719 Z M 615.199219 189.851562"/><path d="M 477.234375 355.058594 L 389.070312 443.300781 L 375.523438 429.742188 L 463.6875 341.5 Z M 477.234375 355.058594"/><path d="M 335.394531 497.019531 L 321.84375 483.460938 L 360.378906 444.894531 L 373.925781 458.457031 Z M 335.394531 497.019531"/></svg>